<svg width="16" height="12" viewBox="0 0 16 12" fill="none" xmlns="http://www.w3.org/2000/svg">
<path d="M7.14802 9.56983C7.38839 9.56983 7.60472 9.76212 7.60472 10.0265C7.60472 10.2669 7.41242 10.4832 7.14802 10.4832C6.90764 10.4832 6.69131 10.2909 6.69131 10.0265C6.69131 9.76212 6.90764 9.56983 7.14802 9.56983ZM14.2149 6.78152C13.9746 6.78152 13.7582 6.58923 13.7582 6.32482C13.7582 6.08445 13.9505 5.86811 14.2149 5.86811C14.4553 5.86811 14.6716 6.06041 14.6716 6.32482C14.6716 6.56519 14.4553 6.78152 14.2149 6.78152ZM14.2149 4.93067C13.4457 4.93067 12.8208 5.55563 12.8208 6.32482C12.8208 6.46904 12.8448 6.61326 12.8929 6.75748L8.3018 9.20927C8.03739 8.82468 7.60472 8.60834 7.14802 8.60834C6.6192 8.60834 6.13846 8.92082 5.89809 9.37753L1.76371 7.21419C1.33104 6.97382 0.994519 6.27674 1.04259 5.6037C1.06663 5.26718 1.18682 5.00278 1.35507 4.90663C1.47526 4.83452 1.59545 4.85855 1.76371 4.93067L1.78774 4.9547C2.89345 5.53159 6.47498 7.40649 6.6192 7.4786C6.85957 7.57475 6.97976 7.62282 7.38839 7.43052L14.7918 3.58459C14.912 3.53651 15.0322 3.44037 15.0322 3.27211C15.0322 3.05577 14.8158 2.95962 14.8158 2.95962C14.3832 2.76733 13.7342 2.45484 13.1092 2.1664C11.7631 1.54143 10.2248 0.820321 9.55172 0.459765C8.97483 0.147283 8.49409 0.411691 8.42198 0.459765L8.25372 0.531876C5.20101 2.07025 1.16278 4.06533 0.922407 4.20955C0.513777 4.44992 0.249369 4.9547 0.225331 5.57967C0.177257 6.56519 0.682036 7.59878 1.40315 7.95934L5.7779 10.2188C5.87405 10.8919 6.47498 11.4207 7.14802 11.4207C7.9172 11.4207 8.51813 10.8198 8.54217 10.0506L13.3496 7.45456C13.59 7.64686 13.9024 7.74301 14.2149 7.74301C14.9841 7.74301 15.6091 7.11804 15.6091 6.34885C15.6091 5.55563 14.9841 4.93067 14.2149 4.93067Z" fill="black"/>
</svg>
