<svg width="12" height="9" viewBox="0 0 12 9" fill="none" xmlns="http://www.w3.org/2000/svg">
<path fill-rule="evenodd" clip-rule="evenodd" d="M8.07631 8.17895C8.36203 8.55895 8.70488 8.98895 8.70488 8.98895C10.8096 8.91895 11.6192 7.46895 11.6192 7.46895C11.6192 4.24895 10.2477 1.63895 10.2477 1.63895C8.87632 0.55895 7.57155 0.58895 7.57155 0.58895L7.43822 0.74895C9.05727 1.26895 9.80965 2.01895 9.80965 2.01895C8.81917 1.44895 7.84774 1.16895 6.94298 1.05895C6.25727 0.978951 5.60012 0.99895 5.01917 1.07895C4.96929 1.07895 4.92666 1.08657 4.87862 1.09516C4.87163 1.09641 4.86452 1.09768 4.85727 1.09895C4.52393 1.12895 3.71441 1.25895 2.69536 1.72895C2.34298 1.89895 2.13346 2.01895 2.13346 2.01895C2.13346 2.01895 2.92393 1.22895 4.63822 0.708951L4.54298 0.58895C4.54298 0.58895 3.23822 0.55895 1.86679 1.63895C1.86679 1.63895 0.495361 4.24895 0.495361 7.46895C0.495361 7.46895 1.29536 8.91895 3.40012 8.98895C3.40012 8.98895 3.7525 8.53895 4.03822 8.15895C2.8287 7.77895 2.37155 6.97895 2.37155 6.97895C2.37155 6.97895 2.46679 7.04895 2.63822 7.14895C2.64774 7.15895 2.65727 7.16895 2.67631 7.17895C2.6906 7.18895 2.70489 7.19645 2.71917 7.20395C2.73346 7.21145 2.74774 7.21895 2.76203 7.22895C3.00012 7.36895 3.23822 7.47895 3.45727 7.56895C3.84774 7.72895 4.31441 7.88895 4.85727 7.99895C5.57155 8.13895 6.40965 8.18895 7.32393 8.00895C7.77155 7.92895 8.22869 7.78895 8.70488 7.57895C9.03822 7.44895 9.40965 7.25895 9.80012 6.98895C9.80012 6.98895 9.32393 7.80895 8.07631 8.17895ZM3.30515 5.42907C3.30515 4.81907 3.73372 4.31906 4.27658 4.31906C4.81944 4.31906 5.25753 4.81907 5.24801 5.42907C5.24801 6.03907 4.81944 6.53907 4.27658 6.53907C3.74324 6.53907 3.30515 6.03907 3.30515 5.42907ZM6.78134 5.42907C6.78134 4.81907 7.20991 4.31906 7.75277 4.31906C8.29563 4.31906 8.7242 4.81907 8.7242 5.42907C8.7242 6.03907 8.29563 6.53907 7.75277 6.53907C7.21943 6.53907 6.78134 6.03907 6.78134 5.42907Z" fill="black"/>
</svg>
