<svg width="134" height="47" viewBox="0 0 134 47" fill="none" xmlns="http://www.w3.org/2000/svg">
<path d="M37.009 36.6248V6.65234H56.3209V10.4359H41.6713V19.3353H53.8128V23.0749H41.6713V36.6248H37.0078H37.009Z" fill="white"/>
<path d="M63.2741 46.3022L68.5088 34.8198H67.2322L58.6094 14.8037H63.6683L70.3554 30.9484L77.3501 14.8037H82.2772L68.2 46.3022H63.2729H63.2741Z" fill="white"/>
<path d="M94.0675 37.1521C91.956 37.1521 90.0927 36.6533 88.48 35.6558C86.8674 34.6595 85.605 33.295 84.6965 31.5647C83.7869 29.8345 83.332 27.8691 83.332 25.6697C83.332 23.4704 83.7869 21.5121 84.6965 19.7961C85.605 18.0801 86.8745 16.7322 88.5014 15.749C90.1295 14.7669 91.9987 14.2752 94.1102 14.2752C95.8405 14.2752 97.3581 14.6125 98.6633 15.287C99.9684 15.9615 100.987 16.9151 101.721 18.1466V6.65234H106.385V36.6237H102.206L101.721 33.2368C101.017 34.264 100.049 35.1725 98.8176 35.9646C97.5862 36.7567 96.002 37.1521 94.0663 37.1521H94.0675ZM94.9035 33.105C96.8974 33.105 98.5326 32.4162 99.8092 31.0374C101.085 29.6599 101.722 27.8857 101.722 25.7149C101.722 23.544 101.085 21.7342 99.8092 20.3697C98.5338 19.0064 96.8986 18.3236 94.9035 18.3236C92.9084 18.3236 91.2672 19.0052 89.9764 20.3697C88.6855 21.733 88.0407 23.5155 88.0407 25.7149C88.0407 27.1518 88.334 28.4284 88.9206 29.5423C89.5073 30.6574 90.3207 31.5291 91.3622 32.1597C92.4025 32.7903 93.5841 33.105 94.9035 33.105Z" fill="white"/>
<path d="M122.485 37.1523C120.344 37.1523 118.445 36.6749 116.788 35.7225C115.132 34.7701 113.834 33.4424 112.896 31.7406C111.956 30.0401 111.488 28.0604 111.488 25.8017C111.488 23.543 111.95 21.5052 112.874 19.7749C113.798 18.0447 115.088 16.6956 116.746 15.7278C118.402 14.7599 120.331 14.2754 122.53 14.2754C124.729 14.2754 126.533 14.7528 128.118 15.7052C129.702 16.6588 130.933 17.9271 131.813 19.5101C132.693 21.0943 133.133 22.8388 133.133 24.7448C133.133 25.0381 133.125 25.354 133.11 25.6901C133.095 26.0274 133.073 26.4014 133.045 26.8123H116.064C116.21 28.9238 116.906 30.5293 118.154 31.629C119.4 32.7287 120.844 33.2785 122.487 33.2785C123.807 33.2785 124.914 32.9781 125.809 32.376C126.703 31.7751 127.371 30.9616 127.811 29.9344H132.475C131.888 31.9877 130.722 33.7037 128.977 35.0812C127.232 36.46 125.069 37.1487 122.489 37.1487L122.485 37.1523ZM122.485 18.104C120.93 18.104 119.552 18.566 118.35 19.4899C117.147 20.4138 116.414 21.7997 116.151 23.6475H128.468C128.38 21.9469 127.778 20.5979 126.664 19.6004C125.549 18.604 124.157 18.104 122.485 18.104Z" fill="white"/>
<path d="M21.8033 2.60076L17.5008 0.261291C17.4889 0.255353 17.4759 0.25179 17.4628 0.24704C17.4498 0.241102 17.4367 0.235165 17.4224 0.231602C17.407 0.228039 17.3916 0.226852 17.3773 0.224477C17.3631 0.223289 17.35 0.219727 17.3358 0.219727C17.3203 0.219727 17.3049 0.223289 17.2906 0.224477C17.2764 0.226852 17.2621 0.226852 17.2491 0.230414C17.2348 0.233977 17.2206 0.241102 17.2063 0.24704C17.1944 0.25179 17.1814 0.255353 17.1707 0.261291L0.178071 9.65479C0.0676292 9.71535 -6.10352e-05 9.83055 -6.10352e-05 9.95643V20.2667C-6.10352e-05 20.389 0.0664416 20.5007 0.170946 20.5624C0.175696 20.5648 0.180446 20.566 0.184009 20.5683L4.42237 22.9909L0.166196 25.562C0.062879 25.6249 -6.10352e-05 25.7366 -6.10352e-05 25.8577V36.9577C-6.10352e-05 36.9731 0.00350161 36.9874 0.0058767 37.0016C0.00706425 37.0147 0.0082518 37.0289 0.0106269 37.042C0.0141895 37.0586 0.0225024 37.0741 0.0284401 37.0895C0.0331903 37.1014 0.0367529 37.1133 0.0426907 37.1251C0.0510035 37.1406 0.062879 37.1536 0.0735669 37.1679C0.0806922 37.1774 0.0866299 37.1881 0.0949427 37.1964C0.109193 37.2106 0.125819 37.2225 0.141257 37.2344C0.148382 37.2403 0.155508 37.2474 0.16382 37.2522H0.166196V37.2534L4.49362 39.9171C4.54943 39.9515 4.61119 39.9681 4.67412 39.9681C4.73706 39.9681 4.79763 39.9515 4.85226 39.9182L9.18205 37.2997L9.24618 37.2629C9.302 37.232 9.34475 37.1869 9.37562 37.1334C9.37562 37.1323 9.37681 37.1299 9.378 37.1287C9.39106 37.1049 9.40175 37.0812 9.40888 37.0551C9.41244 37.0408 9.41363 37.0266 9.416 37.0123C9.41838 37.0004 9.42194 36.9886 9.42194 36.9767C9.42194 36.9743 9.42194 36.9719 9.42194 36.9696C9.42194 36.9648 9.42313 36.9612 9.42313 36.9577V25.8506L17.0258 30.197C17.0792 30.2279 17.1386 30.2421 17.1968 30.2421C17.2265 30.2421 17.2574 30.2374 17.2871 30.2302C17.2966 30.2279 17.3061 30.2219 17.3156 30.2184C17.3334 30.2124 17.3512 30.2065 17.3678 30.197C17.369 30.197 17.3702 30.1946 17.3714 30.1934C17.3726 30.1934 17.3738 30.1934 17.3761 30.191L21.7012 27.5606C21.8045 27.4977 21.8674 27.3861 21.8674 27.2661V22.048C21.8674 22.048 21.8674 22.0468 21.8674 22.0457C21.8674 22.0457 21.8674 22.0445 21.8674 22.0433C21.8674 22.0243 21.8627 22.0053 21.8591 21.9863C21.8567 21.9756 21.8579 21.9661 21.8544 21.9554C21.8472 21.9317 21.8377 21.9091 21.8259 21.8877C21.8235 21.883 21.8223 21.8782 21.8199 21.8735C21.8045 21.8473 21.7867 21.8236 21.7653 21.8022C21.7606 21.7975 21.7546 21.7951 21.7499 21.7903C21.7321 21.7749 21.7154 21.7595 21.6952 21.7488L10.1867 15.1377L21.8092 8.47199C21.8092 8.47199 21.8104 8.4708 21.8116 8.46962C21.8116 8.46962 21.8128 8.46962 21.814 8.46962C21.8282 8.4613 21.8413 8.44943 21.8544 8.43874C21.8639 8.43043 21.8746 8.42449 21.8841 8.41618C21.9007 8.39955 21.9137 8.37936 21.9268 8.36036C21.9304 8.35561 21.9351 8.35086 21.9375 8.34611C21.9517 8.31999 21.9636 8.29267 21.9707 8.26298C21.9731 8.25348 21.9731 8.24398 21.9743 8.23567C21.9779 8.21548 21.9826 8.19648 21.9826 8.1751V2.90358C21.9826 2.7777 21.9137 2.66132 21.8021 2.60076H21.8033ZM21.2938 7.59439L17.6813 5.63019V1.14483L21.2938 3.10903V7.59439ZM16.9914 1.14958V5.63138L4.91876 12.3054C4.91876 12.3054 4.91757 12.3066 4.91638 12.3078C4.9152 12.3078 4.91401 12.3078 4.91282 12.309C4.91045 12.3101 4.90807 12.3125 4.9057 12.3149C4.8867 12.3268 4.86888 12.3398 4.85226 12.3553C4.84988 12.3576 4.84751 12.3588 4.84632 12.36C4.84632 12.36 4.84632 12.36 4.84513 12.3612C4.84513 12.3612 4.84394 12.3624 4.84276 12.3636C4.84157 12.3648 4.84038 12.366 4.83919 12.3671C4.82257 12.385 4.80832 12.404 4.79525 12.4241C4.79407 12.4265 4.79169 12.4277 4.7905 12.4301C4.7905 12.4301 4.7905 12.4313 4.78932 12.4325C4.78694 12.4372 4.78575 12.442 4.78219 12.4467C4.77388 12.4633 4.76557 12.4812 4.75963 12.499C4.75844 12.5037 4.75488 12.5085 4.75369 12.5132C4.75369 12.5132 4.75369 12.5144 4.75369 12.5156C4.75369 12.518 4.75369 12.5215 4.7525 12.5251C4.74657 12.5488 4.743 12.5726 4.743 12.5975C4.743 12.5999 4.743 12.6023 4.743 12.6047C4.743 12.6047 4.743 12.6047 4.743 12.6058C4.743 12.6058 4.743 12.6058 4.743 12.607V17.4546L0.692279 19.6824V10.1595L16.9914 1.14958ZM1.13523 20.2251L5.08264 18.0543L5.22515 18.1351L16.9332 24.8281L16.8643 29.3075L9.25212 24.9551C9.25212 24.9551 9.24737 24.9528 9.24499 24.9516H9.24381L9.23668 24.948L1.05448 20.2703L1.13523 20.2251ZM8.73435 25.4563V36.3342L5.43059 34.2703V23.5859L8.73435 25.4575V25.4563ZM4.74063 23.6049V34.2536L0.750469 36.3544L0.689904 36.3865V26.0524L4.74063 23.6049ZM4.6765 39.2188L1.04142 36.9802L5.07195 34.8593L8.42084 36.9541L4.67769 39.2176L4.6765 39.2188ZM21.1798 27.0737L17.5543 29.279L17.6231 24.8269L21.1798 22.6632V27.0737ZM17.2752 24.2296L5.43891 17.4629L5.43178 13.2032L20.8461 22.0575L17.2752 24.2296ZM9.49438 14.7411L5.78804 12.613L17.3369 6.22871L20.9305 8.18223L9.49438 14.7411Z" fill="url(#paint0_linear_206_100670)"/>
<defs>
<linearGradient id="paint0_linear_206_100670" x1="2.28715" y1="37.0574" x2="18.2502" y2="3.00927" gradientUnits="userSpaceOnUse">
<stop stop-color="#A866FF"/>
<stop offset="0.502893" stop-color="#008FFF"/>
<stop offset="1" stop-color="#00DEFE"/>
</linearGradient>
</defs>
</svg>
