<svg width="20" height="21" viewBox="0 0 20 21" fill="none" xmlns="http://www.w3.org/2000/svg">
<path fill-rule="evenodd" clip-rule="evenodd" d="M10 0.219727C10.5523 0.219727 11 0.667442 11 1.21973V2.21973C11 2.77201 10.5523 3.21973 10 3.21973C9.44771 3.21973 9 2.77201 9 2.21973V1.21973C9 0.667442 9.44771 0.219727 10 0.219727ZM2.92889 3.14862C3.31942 2.7581 3.95258 2.7581 4.34311 3.14862L5.05011 3.85562C5.44063 4.24614 5.44063 4.87931 5.05011 5.26983C4.65958 5.66036 4.02642 5.66036 3.63589 5.26983L2.92889 4.56283C2.53837 4.17231 2.53837 3.53914 2.92889 3.14862ZM17.0711 3.14862C17.4616 3.53914 17.4616 4.17231 17.0711 4.56283L16.3641 5.26983C15.9736 5.66036 15.3404 5.66036 14.9499 5.26983C14.5594 4.87931 14.5594 4.24614 14.9499 3.85562L15.6569 3.14862C16.0474 2.7581 16.6806 2.7581 17.0711 3.14862ZM10 7.21973C9.20435 7.21973 8.44129 7.5358 7.87868 8.09841C7.31607 8.66101 7 9.42408 7 10.2197C7 11.0154 7.31607 11.7784 7.87868 12.341C8.44129 12.9037 9.20435 13.2197 10 13.2197C10.7956 13.2197 11.5587 12.9037 12.1213 12.341C12.6839 11.7784 13 11.0154 13 10.2197C13 9.42408 12.6839 8.66101 12.1213 8.09841C11.5587 7.5358 10.7956 7.21973 10 7.21973ZM6.46447 6.68419C7.40215 5.74651 8.67392 5.21973 10 5.21973C11.3261 5.21973 12.5979 5.74651 13.5355 6.68419C14.4732 7.62187 15 8.89364 15 10.2197C15 11.5458 14.4732 12.8176 13.5355 13.7553C12.5979 14.6929 11.3261 15.2197 10 15.2197C8.67392 15.2197 7.40215 14.6929 6.46447 13.7553C5.52678 12.8176 5 11.5458 5 10.2197C5 8.89364 5.52678 7.62187 6.46447 6.68419ZM0 10.2197C0 9.66744 0.447715 9.21973 1 9.21973H2C2.55228 9.21973 3 9.66744 3 10.2197C3 10.772 2.55228 11.2197 2 11.2197H1C0.447715 11.2197 0 10.772 0 10.2197ZM17 10.2197C17 9.66744 17.4477 9.21973 18 9.21973H19C19.5523 9.21973 20 9.66744 20 10.2197C20 10.772 19.5523 11.2197 19 11.2197H18C17.4477 11.2197 17 10.772 17 10.2197ZM5.05011 15.1696C5.44063 15.5601 5.44063 16.1933 5.05011 16.5838L4.34311 17.2908C3.95258 17.6814 3.31942 17.6814 2.92889 17.2908C2.53837 16.9003 2.53837 16.2671 2.92889 15.8766L3.63589 15.1696C4.02642 14.7791 4.65958 14.7791 5.05011 15.1696ZM14.9499 15.1696C15.3404 14.7791 15.9736 14.7791 16.3641 15.1696L17.0711 15.8766C17.4616 16.2671 17.4616 16.9003 17.0711 17.2908C16.6806 17.6814 16.0474 17.6814 15.6569 17.2908L14.9499 16.5838C14.5594 16.1933 14.5594 15.5601 14.9499 15.1696ZM10 17.2197C10.5523 17.2197 11 17.6674 11 18.2197V19.2197C11 19.772 10.5523 20.2197 10 20.2197C9.44771 20.2197 9 19.772 9 19.2197V18.2197C9 17.6674 9.44771 17.2197 10 17.2197Z" fill="white"/>
</svg>
