<svg width="20" height="21" viewBox="0 0 20 21" fill="none" xmlns="http://www.w3.org/2000/svg">
<path d="M5.40556 16.1842C8.39096 16.1842 10.8111 13.764 10.8111 10.7786C10.8111 7.7932 8.39096 5.37305 5.40556 5.37305C2.42015 5.37305 0 7.7932 0 10.7786C0 13.764 2.42015 16.1842 5.40556 16.1842Z" fill="black"/>
<path d="M14.4149 15.7334C15.9076 15.7334 17.1177 13.515 17.1177 10.7783C17.1177 8.04171 15.9076 5.82324 14.4149 5.82324C12.9222 5.82324 11.7122 8.04171 11.7122 10.7783C11.7122 13.515 12.9222 15.7334 14.4149 15.7334Z" fill="black"/>
<path d="M18.9195 15.2837C19.417 15.2837 19.8204 13.2669 19.8204 10.779C19.8204 8.29121 19.417 6.27441 18.9195 6.27441C18.4219 6.27441 18.0186 8.29121 18.0186 10.779C18.0186 13.2669 18.4219 15.2837 18.9195 15.2837Z" fill="black"/>
</svg>
