<?xml version="1.0" encoding="UTF-8" standalone="no"?>
<svg
   id="svg5"
   viewBox="0 0 629.29999 629.29999"
   version="1.1"
   sodipodi:docname="trsy.svg"
   width="629.29999"
   height="629.29999"
   inkscape:version="1.1.2 (0a00cf5339, 2022-02-04)"
   xmlns:inkscape="http://www.inkscape.org/namespaces/inkscape"
   xmlns:sodipodi="http://sodipodi.sourceforge.net/DTD/sodipodi-0.dtd"
   xmlns="http://www.w3.org/2000/svg"
   xmlns:svg="http://www.w3.org/2000/svg">
  <sodipodi:namedview
     id="namedview31"
     pagecolor="#ffffff"
     bordercolor="#666666"
     borderopacity="1.0"
     inkscape:pageshadow="2"
     inkscape:pageopacity="0.0"
     inkscape:pagecheckerboard="0"
     showgrid="false"
     inkscape:zoom="0.89875"
     inkscape:cx="314.32545"
     inkscape:cy="313.76912"
     inkscape:window-width="1995"
     inkscape:window-height="1192"
     inkscape:window-x="0"
     inkscape:window-y="0"
     inkscape:window-maximized="1"
     inkscape:current-layer="svg5" />
  <defs
     id="defs11">
    <style
       id="style2">.cls-1{fill:#201f23;}.cls-1,.cls-2{stroke-width:0px;}.cls-2{fill:url(#New_Gradient_Swatch);}</style>
    <linearGradient
       id="New_Gradient_Swatch"
       x1="610.35999"
       y1="142.84"
       x2="183.36"
       y2="664.84003"
       gradientUnits="userSpaceOnUse">
      <stop
         offset="0"
         stop-color="#01dfff"
         id="stop4" />
      <stop
         offset=".5"
         stop-color="#4280ff"
         id="stop6" />
      <stop
         offset="1"
         stop-color="#a667ff"
         id="stop8" />
    </linearGradient>
  </defs>
  <g
     id="Logo_propah-7-8-8-3"
     transform="translate(-85.350006,-85.350006)">
    <g
       id="g6-4-3-5-8">
      <circle
         id="circle3-2-4-3-9"
         class="cls-2"
         cx="400"
         cy="400"
         r="314.64999"
         style="fill:url(#New_Gradient_Swatch)" />
    </g>
  </g>
  <polygon
     class="cls-1"
     points="235.54,280.01 213.42,322.69 191.53,280.01 213.42,238.21 "
     id="polygon16"
     transform="translate(-85.350006,-85.350006)" />
  <polygon
     class="cls-1"
     points="608.47,280.01 586.35,322.69 564.46,280.01 586.35,238.21 "
     id="polygon18"
     transform="translate(-85.350006,-85.350006)" />
  <polygon
     class="cls-1"
     points="556.87,284.99 579.2,328.05 220.55,328.05 243.11,284.99 "
     id="polygon20"
     transform="translate(-85.350006,-85.350006)" />
  <polygon
     class="cls-1"
     points="579.2,232.85 556.87,275.92 243.11,275.92 220.55,232.85 "
     id="polygon22"
     transform="translate(-85.350006,-85.350006)" />
  <polygon
     class="cls-1"
     points="442.25,605.69 400.45,627.81 357.77,605.69 400.45,583.8 "
     id="polygon24"
     transform="translate(-85.350006,-85.350006)" />
  <polygon
     class="cls-1"
     points="395.48,576.21 352.41,598.54 352.41,363.77 395.48,341.44 "
     id="polygon26"
     transform="translate(-85.350006,-85.350006)" />
  <polygon
     class="cls-1"
     points="447.61,363.77 447.61,598.54 404.55,576.21 404.55,341.44 "
     id="polygon28"
     transform="translate(-85.350006,-85.350006)" />
</svg>
