<svg width="17" height="14" viewBox="0 0 17 14" fill="none" xmlns="http://www.w3.org/2000/svg">
<path d="M16.2222 1.83035C15.6333 2.10486 14.9985 2.28525 14.3407 2.37152C15.0138 1.95584 15.5338 1.29701 15.7786 0.504856C15.1438 0.897013 14.4401 1.17152 13.6983 1.32839C13.0941 0.653876 12.2451 0.261719 11.2814 0.261719C9.48412 0.261719 8.01567 1.7676 8.01567 3.62642C8.01567 3.89309 8.04626 4.15191 8.0998 4.39505C5.37704 4.25388 2.95257 2.9127 1.3388 0.881326C1.05582 1.37544 0.895208 1.95584 0.895208 2.5676C0.895208 3.73623 1.46882 4.77152 2.35601 5.35976C1.81299 5.35976 1.30821 5.2029 0.864616 4.9676C0.864616 4.9676 0.864616 4.9676 0.864616 4.99113C0.864616 6.6225 1.99655 7.98721 3.49559 8.29309C3.22026 8.37152 2.92963 8.41074 2.63135 8.41074C2.42485 8.41074 2.21834 8.38721 2.01949 8.34799C2.43249 9.67348 3.63326 10.6617 5.07876 10.6852C3.96213 11.5951 2.54722 12.1284 1.00228 12.1284C0.742244 12.1284 0.482206 12.1127 0.222168 12.0813C1.67532 13.0382 3.40381 13.5951 5.25467 13.5951C11.2814 13.5951 14.5931 8.46564 14.5931 4.01858C14.5931 3.86956 14.5931 3.72838 14.5855 3.57937C15.2279 3.10878 15.7786 2.5127 16.2222 1.83035Z" fill="black"/>
</svg>
