<svg width="18" height="16" viewBox="0 0 18 16" fill="none" xmlns="http://www.w3.org/2000/svg">
<path d="M2.7 16H15.3C16.0161 16 16.7028 15.719 17.2092 15.219C17.7155 14.7189 18 14.0406 18 13.3333V2.66667C18 1.95942 17.7155 1.28115 17.2092 0.781049C16.7028 0.280952 16.0161 0 15.3 0H2.7C1.98392 0 1.29716 0.280952 0.790812 0.781049C0.284464 1.28115 0 1.95942 0 2.66667V13.3333C0 14.0406 0.284464 14.7189 0.790812 15.219C1.29716 15.719 1.98392 16 2.7 16ZM16.2 8.88889H11.7V7.11111H16.2V8.88889ZM1.8 2.66667C1.8 2.43092 1.89482 2.20483 2.0636 2.03813C2.23239 1.87143 2.46131 1.77778 2.7 1.77778H15.3C15.5387 1.77778 15.7676 1.87143 15.9364 2.03813C16.1052 2.20483 16.2 2.43092 16.2 2.66667V5.33333H10.8C10.5613 5.33333 10.3324 5.42698 10.1636 5.59368C9.99482 5.76038 9.9 5.98647 9.9 6.22222V9.77778C9.9 10.0135 9.99482 10.2396 10.1636 10.4063C10.3324 10.573 10.5613 10.6667 10.8 10.6667H16.2V13.3333C16.2 13.5691 16.1052 13.7952 15.9364 13.9619C15.7676 14.1286 15.5387 14.2222 15.3 14.2222H2.7C2.46131 14.2222 2.23239 14.1286 2.0636 13.9619C1.89482 13.7952 1.8 13.5691 1.8 13.3333V2.66667Z" fill="white" fill-opacity="0.45"/>
</svg>
